<?xml version="1.0" encoding="UTF-8" standalone="no"?>
<!DOCTYPE svg PUBLIC "-//W3C//DTD SVG 1.1//EN"
 "http://www.w3.org/Graphics/SVG/1.1/DTD/svg11.dtd">
<!-- Generated by graphviz version 12.2.1 (20241206.2353)
 -->
<!-- Pages: 1 -->
<svg width="248pt" height="231pt"
 viewBox="0.00 0.00 248.48 230.58" xmlns="http://www.w3.org/2000/svg" xmlns:xlink="http://www.w3.org/1999/xlink">
<g id="graph0" class="graph" transform="scale(1 1) rotate(0) translate(4 226.58)">
<polygon fill="white" stroke="none" points="-4,4 -4,-226.58 244.48,-226.58 244.48,4 -4,4"/>
<!-- a -->
<g id="node1" class="node">
<title>a</title>
<ellipse fill="none" stroke="black" cx="102.47" cy="-152.59" rx="27" ry="18"/>
<text text-anchor="middle" x="102.47" y="-147.54" font-family="Times,serif" font-size="14.00">a</text>
</g>
<!-- b -->
<g id="node2" class="node">
<title>b</title>
<ellipse fill="none" stroke="black" cx="161.64" cy="-129.17" rx="27" ry="18"/>
<text text-anchor="middle" x="161.64" y="-124.12" font-family="Times,serif" font-size="14.00">b</text>
</g>
<!-- a&#45;&#45;b -->
<g id="edge1" class="edge">
<title>a&#45;&#45;b</title>
<path fill="none" stroke="black" d="M125.85,-143.34C129.86,-141.75 134.02,-140.1 138.04,-138.51"/>
</g>
<!-- c -->
<g id="node3" class="node">
<title>c</title>
<ellipse fill="none" stroke="black" cx="79.13" cy="-93.46" rx="27" ry="18"/>
<text text-anchor="middle" x="79.13" y="-88.41" font-family="Times,serif" font-size="14.00">c</text>
</g>
<!-- a&#45;&#45;c -->
<g id="edge2" class="edge">
<title>a&#45;&#45;c</title>
<path fill="none" stroke="black" d="M95.47,-134.85C92.51,-127.37 89.08,-118.67 86.13,-111.19"/>
</g>
<!-- d -->
<g id="node4" class="node">
<title>d</title>
<ellipse fill="none" stroke="black" cx="138.15" cy="-70.15" rx="27" ry="18"/>
<text text-anchor="middle" x="138.15" y="-65.1" font-family="Times,serif" font-size="14.00">d</text>
</g>
<!-- a&#45;&#45;d -->
<g id="edge3" class="edge">
<title>a&#45;&#45;d</title>
<path fill="none" stroke="black" d="M110.03,-135.11C116.05,-121.21 124.43,-101.86 130.47,-87.89"/>
</g>
<!-- f -->
<g id="node5" class="node">
<title>f</title>
<ellipse fill="none" stroke="black" cx="157.27" cy="-204.58" rx="27" ry="18"/>
<text text-anchor="middle" x="157.27" y="-199.53" font-family="Times,serif" font-size="14.00">f</text>
</g>
<!-- a&#45;&#45;f -->
<g id="edge4" class="edge">
<title>a&#45;&#45;f</title>
<path fill="none" stroke="black" d="M118.32,-167.63C125.65,-174.59 134.34,-182.83 141.64,-189.76"/>
</g>
<!-- g -->
<g id="node6" class="node">
<title>g</title>
<ellipse fill="none" stroke="black" cx="27" cy="-148.04" rx="27" ry="18"/>
<text text-anchor="middle" x="27" y="-142.99" font-family="Times,serif" font-size="14.00">g</text>
</g>
<!-- a&#45;&#45;g -->
<g id="edge5" class="edge">
<title>a&#45;&#45;g</title>
<path fill="none" stroke="black" d="M75.22,-150.95C68.38,-150.54 61.04,-150.09 54.21,-149.68"/>
</g>
<!-- b&#45;&#45;c -->
<g id="edge6" class="edge">
<title>b&#45;&#45;c</title>
<path fill="none" stroke="black" d="M138.66,-119.22C127.21,-114.27 113.42,-108.3 101.99,-103.35"/>
</g>
<!-- b&#45;&#45;d -->
<g id="edge7" class="edge">
<title>b&#45;&#45;d</title>
<path fill="none" stroke="black" d="M154.59,-111.46C151.62,-103.99 148.17,-95.31 145.19,-87.85"/>
</g>
<!-- b&#45;&#45;f -->
<g id="edge9" class="edge">
<title>b&#45;&#45;f</title>
<path fill="none" stroke="black" d="M160.58,-147.42C159.9,-159.19 159.02,-174.44 158.33,-186.23"/>
</g>
<!-- e -->
<g id="node7" class="node">
<title>e</title>
<ellipse fill="none" stroke="black" cx="213.48" cy="-74.07" rx="27" ry="18"/>
<text text-anchor="middle" x="213.48" y="-69.02" font-family="Times,serif" font-size="14.00">e</text>
</g>
<!-- b&#45;&#45;e -->
<g id="edge8" class="edge">
<title>b&#45;&#45;e</title>
<path fill="none" stroke="black" d="M176.08,-113.82C183.27,-106.18 191.94,-96.96 199.12,-89.33"/>
</g>
<!-- c&#45;&#45;d -->
<g id="edge10" class="edge">
<title>c&#45;&#45;d</title>
<path fill="none" stroke="black" d="M102.8,-84.11C106.65,-82.59 110.63,-81.02 114.48,-79.5"/>
</g>
<!-- c&#45;&#45;g -->
<g id="edge11" class="edge">
<title>c&#45;&#45;g</title>
<path fill="none" stroke="black" d="M64.33,-108.95C57.23,-116.39 48.74,-125.28 41.66,-132.7"/>
</g>
<!-- h -->
<g id="node8" class="node">
<title>h</title>
<ellipse fill="none" stroke="black" cx="83.55" cy="-18" rx="27" ry="18"/>
<text text-anchor="middle" x="83.55" y="-12.95" font-family="Times,serif" font-size="14.00">h</text>
</g>
<!-- c&#45;&#45;h -->
<g id="edge12" class="edge">
<title>c&#45;&#45;h</title>
<path fill="none" stroke="black" d="M80.2,-75.19C80.89,-63.42 81.78,-48.16 82.47,-36.36"/>
</g>
<!-- d&#45;&#45;e -->
<g id="edge13" class="edge">
<title>d&#45;&#45;e</title>
<path fill="none" stroke="black" d="M165.35,-71.56C172.09,-71.92 179.32,-72.29 186.07,-72.64"/>
</g>
<!-- d&#45;&#45;h -->
<g id="edge14" class="edge">
<title>d&#45;&#45;h</title>
<path fill="none" stroke="black" d="M122.36,-55.07C115.05,-48.09 106.4,-39.82 99.12,-32.87"/>
</g>
</g>
</svg>
