<?xml version="1.0" encoding="UTF-8" standalone="no"?>
<!DOCTYPE svg PUBLIC "-//W3C//DTD SVG 1.1//EN"
 "http://www.w3.org/Graphics/SVG/1.1/DTD/svg11.dtd">
<!-- Generated by graphviz version 12.2.1 (20241206.2353)
 -->
<!-- Pages: 1 -->
<svg width="302pt" height="291pt"
 viewBox="0.00 0.00 301.93 291.06" xmlns="http://www.w3.org/2000/svg" xmlns:xlink="http://www.w3.org/1999/xlink">
<g id="graph0" class="graph" transform="scale(1 1) rotate(0) translate(4 287.06)">
<polygon fill="white" stroke="none" points="-4,4 -4,-287.06 297.93,-287.06 297.93,4 -4,4"/>
<!-- kh -->
<g id="node1" class="node">
<title>kh</title>
<ellipse fill="none" stroke="black" cx="168" cy="-162.74" rx="27" ry="18"/>
<text text-anchor="middle" x="168" y="-157.69" font-family="Times,serif" font-size="14.00">kh</text>
</g>
<!-- tc -->
<g id="node2" class="node">
<title>tc</title>
<ellipse fill="none" stroke="black" cx="207.58" cy="-222.74" rx="27" ry="18"/>
<text text-anchor="middle" x="207.58" y="-217.69" font-family="Times,serif" font-size="14.00">tc</text>
</g>
<!-- kh&#45;&#45;tc -->
<g id="edge1" class="edge">
<title>kh&#45;&#45;tc</title>
<path fill="none" stroke="black" d="M179.02,-179.45C184.51,-187.77 191.13,-197.81 196.61,-206.11"/>
</g>
<!-- ub -->
<g id="node10" class="node">
<title>ub</title>
<ellipse fill="none" stroke="black" cx="156.92" cy="-54.6" rx="27" ry="18"/>
<text text-anchor="middle" x="156.92" y="-49.55" font-family="Times,serif" font-size="14.00">ub</text>
</g>
<!-- kh&#45;&#45;ub -->
<g id="edge12" class="edge">
<title>kh&#45;&#45;ub</title>
<path fill="none" stroke="black" d="M166.12,-144.4C164.08,-124.51 160.85,-92.96 158.81,-73.03"/>
</g>
<!-- ta -->
<g id="node14" class="node">
<title>ta</title>
<ellipse fill="none" stroke="black" cx="114.66" cy="-216.45" rx="27" ry="18"/>
<text text-anchor="middle" x="114.66" y="-211.4" font-family="Times,serif" font-size="14.00">ta</text>
</g>
<!-- kh&#45;&#45;ta -->
<g id="edge28" class="edge">
<title>kh&#45;&#45;ta</title>
<path fill="none" stroke="black" d="M152.86,-177.99C145.59,-185.31 136.91,-194.05 129.66,-201.35"/>
</g>
<!-- td -->
<g id="node15" class="node">
<title>td</title>
<ellipse fill="none" stroke="black" cx="256.4" cy="-189.29" rx="27" ry="18"/>
<text text-anchor="middle" x="256.4" y="-184.24" font-family="Times,serif" font-size="14.00">td</text>
</g>
<!-- tc&#45;&#45;td -->
<g id="edge15" class="edge">
<title>tc&#45;&#45;td</title>
<path fill="none" stroke="black" d="M226.6,-209.71C230.13,-207.29 233.83,-204.76 237.36,-202.34"/>
</g>
<!-- qp -->
<g id="node3" class="node">
<title>qp</title>
<ellipse fill="none" stroke="black" cx="228.18" cy="-86.52" rx="27" ry="18"/>
<text text-anchor="middle" x="228.18" y="-81.47" font-family="Times,serif" font-size="14.00">qp</text>
</g>
<!-- qp&#45;&#45;kh -->
<g id="edge2" class="edge">
<title>qp&#45;&#45;kh</title>
<path fill="none" stroke="black" d="M215.42,-102.68C205.21,-115.62 190.95,-133.67 180.74,-146.6"/>
</g>
<!-- qp&#45;&#45;ub -->
<g id="edge6" class="edge">
<title>qp&#45;&#45;ub</title>
<path fill="none" stroke="black" d="M205.63,-76.42C197.31,-72.69 187.89,-68.47 179.56,-64.74"/>
</g>
<!-- de -->
<g id="node4" class="node">
<title>de</title>
<ellipse fill="none" stroke="black" cx="64.22" cy="-244.59" rx="27" ry="18"/>
<text text-anchor="middle" x="64.22" y="-239.54" font-family="Times,serif" font-size="14.00">de</text>
</g>
<!-- cg -->
<g id="node5" class="node">
<title>cg</title>
<ellipse fill="none" stroke="black" cx="83.63" cy="-153.18" rx="27" ry="18"/>
<text text-anchor="middle" x="83.63" y="-148.13" font-family="Times,serif" font-size="14.00">cg</text>
</g>
<!-- de&#45;&#45;cg -->
<g id="edge3" class="edge">
<title>de&#45;&#45;cg</title>
<path fill="none" stroke="black" d="M68.06,-226.53C71.46,-210.5 76.41,-187.21 79.81,-171.2"/>
</g>
<!-- co -->
<g id="node7" class="node">
<title>co</title>
<ellipse fill="none" stroke="black" cx="125.9" cy="-265.06" rx="27" ry="18"/>
<text text-anchor="middle" x="125.9" y="-260.01" font-family="Times,serif" font-size="14.00">co</text>
</g>
<!-- de&#45;&#45;co -->
<g id="edge14" class="edge">
<title>de&#45;&#45;co</title>
<path fill="none" stroke="black" d="M88.6,-252.68C92.77,-254.06 97.11,-255.5 101.29,-256.89"/>
</g>
<!-- de&#45;&#45;ta -->
<g id="edge23" class="edge">
<title>de&#45;&#45;ta</title>
<path fill="none" stroke="black" d="M85.32,-232.82C88.13,-231.25 91.01,-229.65 93.81,-228.08"/>
</g>
<!-- tb -->
<g id="node11" class="node">
<title>tb</title>
<ellipse fill="none" stroke="black" cx="27" cy="-113.62" rx="27" ry="18"/>
<text text-anchor="middle" x="27" y="-108.57" font-family="Times,serif" font-size="14.00">tb</text>
</g>
<!-- cg&#45;&#45;tb -->
<g id="edge7" class="edge">
<title>cg&#45;&#45;tb</title>
<path fill="none" stroke="black" d="M64.78,-140C58.73,-135.78 52.03,-131.1 45.97,-126.87"/>
</g>
<!-- ka -->
<g id="node6" class="node">
<title>ka</title>
<ellipse fill="none" stroke="black" cx="40.21" cy="-202.76" rx="27" ry="18"/>
<text text-anchor="middle" x="40.21" y="-197.71" font-family="Times,serif" font-size="14.00">ka</text>
</g>
<!-- ka&#45;&#45;de -->
<g id="edge27" class="edge">
<title>ka&#45;&#45;de</title>
<path fill="none" stroke="black" d="M49.98,-219.77C51.43,-222.31 52.93,-224.92 54.39,-227.45"/>
</g>
<!-- ka&#45;&#45;co -->
<g id="edge4" class="edge">
<title>ka&#45;&#45;co</title>
<path fill="none" stroke="black" d="M58.8,-216.28C73.17,-226.73 92.97,-241.12 107.34,-251.56"/>
</g>
<!-- co&#45;&#45;tc -->
<g id="edge29" class="edge">
<title>co&#45;&#45;tc</title>
<path fill="none" stroke="black" d="M147.36,-253.94C159.27,-247.77 174.05,-240.11 185.98,-233.93"/>
</g>
<!-- yn -->
<g id="node8" class="node">
<title>yn</title>
<ellipse fill="none" stroke="black" cx="169.35" cy="-115.24" rx="27" ry="18"/>
<text text-anchor="middle" x="169.35" y="-110.19" font-family="Times,serif" font-size="14.00">yn</text>
</g>
<!-- yn&#45;&#45;cg -->
<g id="edge11" class="edge">
<title>yn&#45;&#45;cg</title>
<path fill="none" stroke="black" d="M146.38,-125.41C133.98,-130.89 118.73,-137.64 106.37,-143.11"/>
</g>
<!-- aq -->
<g id="node9" class="node">
<title>aq</title>
<ellipse fill="none" stroke="black" cx="104.87" cy="-84.84" rx="27" ry="18"/>
<text text-anchor="middle" x="104.87" y="-79.79" font-family="Times,serif" font-size="14.00">aq</text>
</g>
<!-- yn&#45;&#45;aq -->
<g id="edge5" class="edge">
<title>yn&#45;&#45;aq</title>
<path fill="none" stroke="black" d="M147.16,-104.78C140.75,-101.76 133.75,-98.46 127.32,-95.43"/>
</g>
<!-- aq&#45;&#45;cg -->
<g id="edge20" class="edge">
<title>aq&#45;&#45;cg</title>
<path fill="none" stroke="black" d="M99.29,-102.8C96.19,-112.76 92.35,-125.12 89.25,-135.1"/>
</g>
<!-- vc -->
<g id="node12" class="node">
<title>vc</title>
<ellipse fill="none" stroke="black" cx="28.52" cy="-38.19" rx="27" ry="18"/>
<text text-anchor="middle" x="28.52" y="-33.14" font-family="Times,serif" font-size="14.00">vc</text>
</g>
<!-- ub&#45;&#45;vc -->
<g id="edge22" class="edge">
<title>ub&#45;&#45;vc</title>
<path fill="none" stroke="black" d="M130,-51.16C108.09,-48.36 77.3,-44.42 55.4,-41.63"/>
</g>
<!-- tb&#45;&#45;ka -->
<g id="edge9" class="edge">
<title>tb&#45;&#45;ka</title>
<path fill="none" stroke="black" d="M29.67,-131.66C31.95,-147.02 35.21,-169 37.49,-184.44"/>
</g>
<!-- tb&#45;&#45;vc -->
<g id="edge31" class="edge">
<title>tb&#45;&#45;vc</title>
<path fill="none" stroke="black" d="M27.37,-95.36C27.6,-83.59 27.91,-68.33 28.15,-56.54"/>
</g>
<!-- wq -->
<g id="node16" class="node">
<title>wq</title>
<ellipse fill="none" stroke="black" cx="94.01" cy="-18" rx="27" ry="18"/>
<text text-anchor="middle" x="94.01" y="-12.95" font-family="Times,serif" font-size="14.00">wq</text>
</g>
<!-- tb&#45;&#45;wq -->
<g id="edge16" class="edge">
<title>tb&#45;&#45;wq</title>
<path fill="none" stroke="black" d="M38.67,-96.96C50.97,-79.41 70.22,-51.94 82.47,-34.46"/>
</g>
<!-- vc&#45;&#45;aq -->
<g id="edge8" class="edge">
<title>vc&#45;&#45;aq</title>
<path fill="none" stroke="black" d="M48.58,-50.45C59.71,-57.25 73.52,-65.69 84.68,-72.5"/>
</g>
<!-- wh -->
<g id="node13" class="node">
<title>wh</title>
<ellipse fill="none" stroke="black" cx="266.93" cy="-131.65" rx="27" ry="18"/>
<text text-anchor="middle" x="266.93" y="-126.6" font-family="Times,serif" font-size="14.00">wh</text>
</g>
<!-- wh&#45;&#45;tc -->
<g id="edge10" class="edge">
<title>wh&#45;&#45;tc</title>
<path fill="none" stroke="black" d="M256.05,-148.36C245.4,-164.69 229.29,-189.43 218.6,-205.83"/>
</g>
<!-- wh&#45;&#45;qp -->
<g id="edge30" class="edge">
<title>wh&#45;&#45;qp</title>
<path fill="none" stroke="black" d="M253.38,-115.87C249.62,-111.5 245.55,-106.75 241.79,-102.37"/>
</g>
<!-- wh&#45;&#45;yn -->
<g id="edge26" class="edge">
<title>wh&#45;&#45;yn</title>
<path fill="none" stroke="black" d="M240.27,-127.17C226.5,-124.85 209.74,-122.03 195.98,-119.72"/>
</g>
<!-- wh&#45;&#45;td -->
<g id="edge17" class="edge">
<title>wh&#45;&#45;td</title>
<path fill="none" stroke="black" d="M263.6,-149.89C262.37,-156.62 260.98,-164.24 259.75,-170.98"/>
</g>
<!-- ta&#45;&#45;ka -->
<g id="edge18" class="edge">
<title>ta&#45;&#45;ka</title>
<path fill="none" stroke="black" d="M88.2,-211.59C81.18,-210.29 73.6,-208.9 66.58,-207.61"/>
</g>
<!-- ta&#45;&#45;co -->
<g id="edge13" class="edge">
<title>ta&#45;&#45;co</title>
<path fill="none" stroke="black" d="M118.84,-234.55C119.77,-238.54 120.75,-242.78 121.67,-246.78"/>
</g>
<!-- td&#45;&#45;qp -->
<g id="edge19" class="edge">
<title>td&#45;&#45;qp</title>
<path fill="none" stroke="black" d="M251.49,-171.39C246.34,-152.64 238.3,-123.36 233.14,-104.56"/>
</g>
<!-- td&#45;&#45;yn -->
<g id="edge32" class="edge">
<title>td&#45;&#45;yn</title>
<path fill="none" stroke="black" d="M239.62,-175.02C224.3,-161.99 201.77,-142.82 186.38,-129.73"/>
</g>
<!-- wq&#45;&#45;aq -->
<g id="edge24" class="edge">
<title>wq&#45;&#45;aq</title>
<path fill="none" stroke="black" d="M96.98,-36.26C98.51,-45.7 100.37,-57.17 101.91,-66.6"/>
</g>
<!-- wq&#45;&#45;ub -->
<g id="edge21" class="edge">
<title>wq&#45;&#45;ub</title>
<path fill="none" stroke="black" d="M114.61,-29.98C121.63,-34.07 129.48,-38.63 136.49,-42.71"/>
</g>
<!-- wq&#45;&#45;vc -->
<g id="edge25" class="edge">
<title>wq&#45;&#45;vc</title>
<path fill="none" stroke="black" d="M69.25,-25.63C64.03,-27.24 58.53,-28.94 53.31,-30.55"/>
</g>
</g>
</svg>
